<svg xmlns="http://www.w3.org/2000/svg" xmlns:xlink="http://www.w3.org/1999/xlink" version="1.1" x="0px" y="0px" viewBox="0 0 100 125" enable-background="new 0 0 100 100" xml:space="preserve"><g><path d="M50.199,65.416c2.529,0,4.586-2.058,4.586-4.586c0-0.828-0.672-1.5-1.5-1.5s-1.5,0.672-1.5,1.5   c0,0.874-0.712,1.586-1.586,1.586s-1.586-0.712-1.586-1.586c0-0.828-0.671-1.5-1.5-1.5s-1.5,0.672-1.5,1.5   C45.613,63.358,47.67,65.416,50.199,65.416z"/><path d="M37.058,58.166c-0.829,0-1.5,0.672-1.5,1.5c0,0.666-0.542,1.207-1.208,1.207s-1.208-0.541-1.208-1.207   c0-0.828-0.671-1.5-1.5-1.5s-1.5,0.672-1.5,1.5c0,2.319,1.888,4.207,4.208,4.207s4.208-1.888,4.208-4.207   C38.558,58.838,37.886,58.166,37.058,58.166z"/><path d="M59.392,68.91H41.005c-0.829,0-1.5,0.672-1.5,1.5c0,3.112,1.344,5.909,3.473,7.864c0.036,0.035,0.067,0.073,0.106,0.105   c0.01,0.008,0.021,0.013,0.032,0.021c1.888,1.676,4.365,2.703,7.082,2.703c2.716,0,5.189-1.025,7.078-2.699   c0.038-0.028,0.071-0.064,0.107-0.098c2.148-1.957,3.508-4.768,3.508-7.896C60.892,69.582,60.22,68.91,59.392,68.91z M57.745,71.91   c-0.246,1.238-0.794,2.365-1.558,3.313c-5.723-3.866-10.057-1.697-12.077-0.125c-0.711-0.921-1.224-2.005-1.459-3.188H57.745z    M46.397,77.096c1.379-0.923,3.901-1.809,7.329,0.143c-1.059,0.549-2.256,0.865-3.528,0.865   C48.816,78.104,47.52,77.735,46.397,77.096z"/><path d="M32.521,53.181c0.19-0.136,1.914-1.287,3.645-0.008c0.268,0.197,0.581,0.293,0.89,0.293c0.459,0,0.914-0.211,1.208-0.608   c0.492-0.667,0.351-1.606-0.315-2.098c-2.845-2.103-5.952-0.918-7.198,0c-0.662,0.489-0.8,1.415-0.318,2.082   C30.916,53.508,31.851,53.656,32.521,53.181z"/><path d="M69.127,58.166c-0.828,0-1.5,0.672-1.5,1.5c0,0.666-0.542,1.207-1.209,1.207c-0.666,0-1.207-0.541-1.207-1.207   c0-0.828-0.672-1.5-1.5-1.5s-1.5,0.672-1.5,1.5c0,2.319,1.888,4.207,4.207,4.207c2.321,0,4.209-1.888,4.209-4.207   C70.627,58.838,69.955,58.166,69.127,58.166z"/><path d="M64.603,53.172c0.018-0.014,1.834-1.326,3.634,0.001c0.268,0.197,0.58,0.293,0.89,0.293c0.46,0,0.914-0.211,1.208-0.609   c0.492-0.666,0.351-1.605-0.316-2.097c-2.848-2.104-5.955-0.919-7.198,0c-0.666,0.493-0.807,1.431-0.314,2.098   C62.997,53.522,63.936,53.664,64.603,53.172z"/><path d="M64.446,21.531C64.15,14.024,57.97,8.005,50.391,8.005c-7.578,0-13.759,6.02-14.055,13.526   c-14.014,5.601-23.945,19.305-23.945,35.293v23.607c0,4.182,0.687,8.313,2.042,12.283l0.346,1.016h9.088V72.098   c4.339,6.687,11.095,11.723,19.273,13.816c1.64,2.922,4.757,4.773,8.137,4.773c3.378,0,6.495-1.852,8.136-4.773   c6.933-1.774,12.838-5.666,17.12-10.883V93.73H86l0.347-1.015c1.356-3.968,2.044-8.101,2.044-12.284V56.824   C88.391,40.836,78.46,27.132,64.446,21.531z M50.391,21.825c8.992,0,17.2,3.411,23.406,9.003   c-20.364-6.281-37.536-3.074-46.313-0.433C33.629,25.063,41.636,21.825,50.391,21.825z M50.391,11.005   c3.506,0,6.631,1.641,8.664,4.19c-6.925-2.593-13.213-1.555-17.003-0.383C44.084,12.484,47.065,11.005,50.391,11.005z    M39.772,18.929l0.001,0.002c0.424-0.228,10.472-5.502,21.372,0.524c0.079,0.323,0.143,0.651,0.192,0.985   c-3.469-1.045-7.143-1.614-10.947-1.614s-7.478,0.569-10.947,1.614C39.521,19.924,39.626,19.418,39.772,18.929z M58.049,83.158   l-0.715,0.168l-0.307,0.666c-1.033,2.246-3.29,3.695-5.751,3.695c-2.462,0-4.72-1.449-5.751-3.695l-0.307-0.666l-0.716-0.168   c-9.589-2.24-17.09-8.909-20.637-17.555V46.855h24.158l2.703-5.472l2.768,5.472h23.038V69.84   C72.517,76.393,66.003,81.302,58.049,83.158z M85.391,80.432c0,3.497-0.521,6.957-1.553,10.299h-4.306V43.855H55.338l-4.643-9.182   l-4.536,9.182H20.866l0,46.875h-3.924c-1.029-3.344-1.551-6.803-1.551-10.299V56.824c0-8.142,2.803-15.637,7.483-21.589   c3.131-1.34,26.734-10.635,55.11,0.201l0.026-0.07c4.619,5.932,7.381,13.376,7.381,21.459V80.432z"/></g><text x="0" y="115" fill="#000000" font-size="5px" font-weight="bold" font-family="'Helvetica Neue', Helvetica, Arial-Unicode, Arial, Sans-serif">Created by Creative Mania</text><text x="0" y="120" fill="#000000" font-size="5px" font-weight="bold" font-family="'Helvetica Neue', Helvetica, Arial-Unicode, Arial, Sans-serif">from the Noun Project</text></svg>